<svg width="85" height="85" viewBox="0 0 85 85" fill="none" xmlns="http://www.w3.org/2000/svg">
<path d="M14.1667 58.4375C18.0787 58.4375 21.25 55.2661 21.25 51.3541C21.25 47.4421 18.0787 44.2708 14.1667 44.2708C10.2546 44.2708 7.08333 47.4421 7.08333 51.3541C7.08333 55.2661 10.2546 58.4375 14.1667 58.4375Z" fill="#C1C9BE"/>
<path d="M4.32083 64.0333C1.7 65.1666 0 67.7166 0 70.5854V76.1458H15.9375V70.4437C15.9375 67.5041 16.7521 64.7416 18.1688 62.3333C16.8583 62.1208 15.5479 61.9791 14.1667 61.9791C10.6604 61.9791 7.33125 62.7229 4.32083 64.0333Z" fill="#C1C9BE"/>
<path d="M70.8333 58.4375C74.7454 58.4375 77.9167 55.2661 77.9167 51.3541C77.9167 47.4421 74.7454 44.2708 70.8333 44.2708C66.9213 44.2708 63.75 47.4421 63.75 51.3541C63.75 55.2661 66.9213 58.4375 70.8333 58.4375Z" fill="#C1C9BE"/>
<path d="M80.6792 64.0333C77.6688 62.7229 74.3396 61.9791 70.8333 61.9791C69.4521 61.9791 68.1417 62.1208 66.8313 62.3333C68.2479 64.7416 69.0625 67.5041 69.0625 70.4437V76.1458H85V70.5854C85 67.7166 83.3 65.1666 80.6792 64.0333Z" fill="#C1C9BE"/>
<path d="M57.5167 60.7395C53.3729 58.8979 48.2729 57.552 42.5 57.552C36.7271 57.552 31.6271 58.9333 27.4833 60.7395C23.6583 62.4395 21.25 66.2645 21.25 70.4437V76.1458H63.75V70.4437C63.75 66.2645 61.3417 62.4395 57.5167 60.7395ZM28.5812 69.0625C28.9 68.2479 29.5375 67.575 30.3167 67.2208C34.2125 65.4854 38.3208 64.6354 42.4646 64.6354C46.6438 64.6354 50.7167 65.5208 54.6125 67.2208C55.4271 67.575 56.0292 68.2479 56.3479 69.0625H28.5812Z" fill="#C1C9BE"/>
<path d="M31.875 44.2708C31.875 50.15 36.6208 54.8958 42.5 54.8958C48.3792 54.8958 53.125 50.15 53.125 44.2708C53.125 38.3916 48.3792 33.6458 42.5 33.6458C36.6208 33.6458 31.875 38.3916 31.875 44.2708ZM46.0417 44.2708C46.0417 46.2187 44.4479 47.8125 42.5 47.8125C40.5521 47.8125 38.9583 46.2187 38.9583 44.2708C38.9583 42.3229 40.5521 40.7291 42.5 40.7291C44.4479 40.7291 46.0417 42.3229 46.0417 44.2708Z" fill="#C1C9BE"/>
<path d="M8.78333 40.2333C7.68542 37.5416 7.08333 34.9208 7.08333 32.2291C7.08333 23.0916 14.2375 15.9375 23.375 15.9375C32.8667 15.9375 36.9042 22.1 42.5 28.652C48.0604 22.1708 52.0625 15.9375 61.625 15.9375C70.7625 15.9375 77.9167 23.0916 77.9167 32.2291C77.9167 34.9208 77.3146 37.5416 76.2167 40.2333C78.5188 41.3312 80.3958 43.1375 81.6354 45.3333C83.7604 41.0833 85 36.7625 85 32.2291C85 19.125 74.7292 8.85413 61.625 8.85413C54.2229 8.85413 47.1396 12.2895 42.5 17.7437C37.8604 12.2895 30.7771 8.85413 23.375 8.85413C10.2708 8.85413 0 19.125 0 32.2291C0 36.7625 1.23958 41.0833 3.4 45.3333C4.63958 43.1375 6.51667 41.3312 8.78333 40.2333Z" fill="#C1C9BE"/>
</svg>
