<svg width="85" height="85" viewBox="0 0 85 85" fill="none" xmlns="http://www.w3.org/2000/svg">
<path d="M43.2864 70.3198C42.6489 70.9573 41.5156 71.0636 40.7719 70.3198C40.1344 69.6823 40.0281 68.549 40.7719 67.8052L52.7781 55.799L47.7844 50.8052L35.7781 62.8115C35.1052 63.5198 33.9719 63.4844 33.2635 62.8115C32.5198 62.0677 32.626 60.9344 33.2635 60.2969L45.2698 48.2907L40.276 43.2969L28.2698 55.3032C27.6323 55.9407 26.4989 56.0469 25.7552 55.3032C25.0823 54.6302 25.0823 53.4969 25.7552 52.7886L37.7614 40.7823L32.7323 35.7886L20.726 47.7948C20.0885 48.4323 18.9552 48.5386 18.2114 47.7948C17.5385 47.0865 17.5385 45.9886 18.2114 45.2802L33.7239 29.7677L40.3469 36.3552C43.7114 39.7198 49.5198 39.6844 52.8844 36.3552C56.3552 32.8844 56.3552 27.2886 52.8844 23.8177L46.2969 17.2302L47.2885 16.2386C50.051 13.4761 54.5489 13.4761 57.3114 16.2386L72.3281 31.2552C75.0906 34.0177 75.0906 38.5157 72.3281 41.2782L43.2864 70.3198ZM77.3219 46.3073C82.8469 40.7823 82.8469 31.8219 77.3219 26.2615L62.3052 11.2448C56.7802 5.71982 47.8198 5.71982 42.2594 11.2448L41.2677 12.2365L40.276 11.2448C34.751 5.71982 25.7906 5.71982 20.2302 11.2448L7.6927 23.7823C2.66353 28.8115 2.20312 36.6386 6.27603 42.1636L11.4115 37.0282C10.0302 34.3719 10.4906 31.0073 12.7219 28.7761L25.2594 16.2386C28.0219 13.4761 32.5198 13.4761 35.2823 16.2386L47.8906 28.8469C48.5281 29.4844 48.6344 30.6177 47.8906 31.3615C47.1469 32.1052 46.0135 31.999 45.376 31.3615L33.7239 19.7448L13.1823 40.2511C9.71145 43.6865 9.71145 49.3177 13.1823 52.7886C14.5635 54.1698 16.3344 55.0198 18.2114 55.2677C18.4594 57.1094 19.274 58.8802 20.6906 60.2969C22.1073 61.7136 23.8781 62.5282 25.7198 62.7761C25.9677 64.6177 26.7823 66.3886 28.1989 67.8052C29.6156 69.2219 31.3864 70.0365 33.2281 70.2844C33.476 72.1969 34.326 73.9323 35.7073 75.3136C37.3719 76.9782 39.6031 77.899 41.976 77.899C44.3489 77.899 46.5802 76.9782 48.2448 75.3136L77.3219 46.3073Z" fill="#C1C9BE"/>
</svg>
