<svg width="416" height="110" viewBox="0 0 416 110" fill="none" xmlns="http://www.w3.org/2000/svg">
<path d="M58.0564 7.91127C52.4738 3.265 44.144 0.938904 33.0734 0.938904H5.2977C3.52782 0.938904 2.3426 1.2014 1.73856 1.72086C1.13102 2.24387 0.829773 3.3579 0.829773 5.06611V98.1413C0.829773 99.8495 1.13063 100.966 1.73856 101.485C2.3426 102.008 3.52744 102.268 5.2977 102.268H13.1123C14.8806 102.268 16.0655 102.008 16.6734 101.485C17.2775 100.966 17.5803 99.8495 17.5803 98.1413V64.6967H33.0734C44.0513 64.6967 52.3564 62.2761 57.9866 57.4389C63.615 52.5997 66.4317 45.0099 66.4317 34.6669V31.8218C66.4317 20.5313 63.6394 12.5611 58.0564 7.91127ZM49.1229 34.3835C49.1229 37.1362 48.7747 39.6975 48.0761 42.0678C47.3794 44.4402 45.8894 46.3378 43.6101 47.7602C41.3288 49.1829 37.8174 49.8949 33.073 49.8949H17.5799V15.7383H33.073C37.817 15.7383 41.3288 16.4756 43.6101 17.9447C45.8894 19.4176 47.3794 21.4097 48.0761 23.9228C48.7747 26.4378 49.1229 29.2601 49.1229 32.3911V34.3835Z" fill="#424940"/>
<path d="M125.191 28.6908C121.094 26.6968 115.371 25.701 108.022 25.701C101.881 25.701 96.9023 26.4133 93.0876 27.8357C89.271 29.2605 86.2004 31.2525 83.8757 33.8138C80.9908 37.0393 79.5501 40.5024 79.5501 44.2026C79.5501 45.2471 79.8285 46.0306 80.3868 46.5501C80.945 47.0731 81.9674 47.3336 83.4574 47.3336H92.5289C94.017 47.3336 95.0409 47.1695 95.5996 46.8355C96.1579 46.5034 96.6239 45.7681 96.9969 44.6292C97.7409 42.4478 99.0413 40.9076 100.904 40.0043C102.765 39.1029 105.137 38.653 108.022 38.653C112.21 38.653 115.303 39.6722 117.304 41.7125C119.303 43.7527 120.304 47.4301 120.304 52.7421V56.4423C117.885 56.1565 115.303 55.9442 112.558 55.8015C109.813 55.6588 107.371 55.5872 105.232 55.5872C100.018 55.5872 95.2514 56.3245 90.9258 57.7935C86.5982 59.2665 83.1546 61.7563 80.5969 65.2656C78.0357 68.7769 76.7578 73.6623 76.7578 79.9243C76.7578 88.2728 79.1073 94.3225 83.8059 98.069C88.5046 101.817 95.7853 103.69 105.65 103.69H109.558C116.538 103.69 121.956 102.551 125.819 100.275C129.679 97.9974 132.4 94.9862 133.984 91.2377C135.565 87.4908 136.356 83.5301 136.356 79.3546V51.6027C136.356 46.0049 135.52 41.2851 133.845 37.4421C132.169 33.5992 129.284 30.6829 125.191 28.6908ZM120.305 75.7979C120.305 81.2048 119.328 85.0477 117.374 87.3256C115.42 89.6015 112.162 90.7404 107.604 90.7404H105.232C101.323 90.7404 98.2972 89.9355 96.1583 88.3218C94.0173 86.7081 92.9496 83.8629 92.9496 79.782C92.9496 75.701 94.0418 72.8076 96.2284 71.1014C98.4132 69.3932 101.694 68.5381 106.069 68.5381C107.835 68.5381 109.883 68.5883 112.21 68.6808C114.535 68.7773 117.234 69.0149 120.305 69.3932L120.305 75.7979Z" fill="#424940"/>
<path d="M189.672 27.6948H186.601C183.063 27.6948 179.714 28.7392 176.553 30.8257C173.388 32.9123 171.016 35.5222 169.433 38.6532V31.822C169.433 30.2082 169.155 29.1175 168.596 28.5483C168.038 27.979 166.828 27.6952 164.967 27.6952H157.571C155.801 27.6952 154.616 27.979 154.012 28.5483C153.404 29.1175 153.103 30.2082 153.103 31.822V98.1415C153.103 99.7552 153.404 100.846 154.012 101.415C154.616 101.984 155.801 102.268 157.571 102.268H165.248C167.107 102.268 168.318 101.984 168.877 101.415C169.433 100.846 169.713 99.7552 169.713 98.1415V60.7108C169.713 55.4953 171.201 51.2969 174.179 48.1157C177.157 44.9385 181.019 43.3497 185.765 43.3497H189.672C191.068 43.3497 191.997 43.0892 192.465 42.5661C192.928 42.0471 193.161 40.9793 193.161 39.3636V31.6792C193.161 30.0675 192.928 29.0001 192.465 28.4767C191.997 27.9557 191.067 27.6948 189.672 27.6948Z" fill="#424940"/>
<path d="M259.038 0.938904H251.362C249.594 0.938904 248.407 1.22275 247.803 1.79202C247.197 2.36129 246.896 3.45397 246.896 5.06571V32.1052C242.708 27.8353 236.753 25.7006 229.031 25.7006C219.724 25.7006 212.606 28.6193 207.675 34.4547C202.743 40.2881 200.278 48.6152 200.278 59.431V73.3773C200.278 82.9612 203.116 90.5048 208.792 96.0061C214.467 101.509 222.237 104.26 232.101 104.26C242.243 104.26 250.012 101.509 255.409 96.0061C260.806 90.5028 263.506 82.6773 263.506 72.5242V5.06571C263.506 3.45397 263.226 2.36129 262.667 1.79202C262.109 1.22275 260.899 0.938904 259.038 0.938904ZM247.175 70.5321C247.175 83.5308 242.15 90.028 232.102 90.028C221.959 90.028 216.887 83.5305 216.887 70.5321V59.5737C216.887 46.575 221.959 40.0758 232.102 40.0758C242.15 40.0758 247.175 46.6216 247.175 59.7148V70.5321Z" fill="#424940"/>
<path d="M309.145 25.701C299.188 25.701 291.42 28.5963 285.836 34.3835C280.253 40.1707 277.462 48.2836 277.462 58.719V72.6673C277.462 82.6295 280.253 90.3854 285.836 95.935C291.42 101.485 299.188 104.261 309.145 104.261C313.089 104.261 316.675 103.783 319.933 102.868C320.311 103.317 320.768 103.714 321.356 103.979L331.817 108.699C334.686 109.994 337.854 107.636 337.519 104.455L336.297 92.857C336.234 92.2518 336.024 91.7252 335.754 91.2464C339.122 85.9325 340.828 79.2768 340.828 71.2425V57.2962C340.828 47.334 338.038 39.5781 332.455 34.0265C326.87 28.4769 319.101 25.701 309.145 25.701ZM294.071 70.5321V59.431C294.071 46.5287 299.097 40.0758 309.145 40.0758C319.194 40.0758 324.22 46.5287 324.22 59.431V70.5321C324.22 83.4364 319.194 89.8873 309.145 89.8873C299.097 89.8873 294.071 83.4364 294.071 70.5321Z" fill="#424940"/>
<path d="M410.059 32.6037C406.243 28.0037 400.427 25.701 392.612 25.701C388.33 25.701 384.446 26.5098 380.957 28.1215C377.468 29.7353 374.653 31.9629 372.512 34.8101V31.8218C372.512 30.1136 372.209 28.9996 371.605 28.4765C370.999 27.9555 369.812 27.6946 368.046 27.6946H360.649C358.88 27.6946 357.694 27.9551 357.09 28.4765C356.483 28.9996 356.182 30.1136 356.182 31.8218V98.1413C356.182 99.8495 356.482 100.966 357.09 101.485C357.694 102.008 358.879 102.268 360.649 102.268H368.326C370.092 102.268 371.277 102.008 371.885 101.485C372.489 100.966 372.792 99.8495 372.792 98.1413V56.4427C372.792 51.4142 374.07 47.4996 376.629 44.7007C379.189 41.9038 382.702 40.5024 387.168 40.5024C391.727 40.5024 394.866 41.6662 396.588 43.9884C398.311 46.3145 399.17 49.6597 399.17 54.0221V98.1413C399.17 99.8495 399.473 100.966 400.079 101.485C400.685 102.008 401.87 102.268 403.638 102.268H411.317C413.081 102.268 414.27 102.008 414.876 101.485C415.478 100.966 415.781 99.8495 415.781 98.1413V51.4608C415.781 43.4906 413.872 37.2073 410.059 32.6037Z" fill="#424940"/>
</svg>
