<svg width="123" height="49" viewBox="0 0 123 49" fill="none" xmlns="http://www.w3.org/2000/svg">
<path d="M18.2885 13.1338C16.9368 12.0123 14.9199 11.4508 12.2395 11.4508H5.51424C5.0857 11.4508 4.79873 11.5142 4.65247 11.6396C4.50537 11.7658 4.43243 12.0347 4.43243 12.447V34.9135C4.43243 35.3258 4.50528 35.5952 4.65247 35.7205C4.79873 35.8467 5.08561 35.9096 5.51424 35.9096H7.40636C7.83452 35.9096 8.12139 35.8467 8.26859 35.7205C8.41484 35.5952 8.48816 35.3258 8.48816 34.9135V26.8406H12.2395C14.8975 26.8406 16.9084 26.2564 18.2716 25.0888C19.6344 23.9207 20.3164 22.0886 20.3164 19.5921V18.9053C20.3164 16.18 19.6403 14.2562 18.2885 13.1338ZM16.1255 19.5237C16.1255 20.1881 16.0412 20.8063 15.872 21.3785C15.7033 21.9511 15.3425 22.4092 14.7907 22.7525C14.2383 23.0959 13.3881 23.2678 12.2394 23.2678H8.48807V15.0231H12.2394C13.388 15.0231 14.2383 15.2011 14.7907 15.5557C15.3425 15.9112 15.7033 16.392 15.872 16.9987C16.0412 17.6057 16.1255 18.287 16.1255 19.0427V19.5237Z" fill="#424940"/>
<path d="M34.5435 18.1496C33.5516 17.6682 32.166 17.4279 30.3866 17.4279C28.8996 17.4279 27.6941 17.5998 26.7705 17.9432C25.8464 18.2871 25.1029 18.7679 24.54 19.3862C23.8415 20.1647 23.4927 21.0006 23.4927 21.8938C23.4927 22.1459 23.5601 22.335 23.6952 22.4604C23.8304 22.5867 24.078 22.6495 24.4387 22.6495H26.6352C26.9955 22.6495 27.2434 22.6099 27.3787 22.5293C27.5139 22.4492 27.6267 22.2717 27.717 21.9968C27.8971 21.4702 28.212 21.0984 28.6631 20.8804C29.1136 20.6628 29.688 20.5542 30.3865 20.5542C31.4004 20.5542 32.1493 20.8002 32.6338 21.2927C33.1178 21.7852 33.3603 22.6728 33.3603 23.955V24.8482C32.7745 24.7792 32.1493 24.728 31.4847 24.6935C30.8201 24.6591 30.2288 24.6418 29.7109 24.6418C28.4486 24.6418 27.2944 24.8198 26.247 25.1744C25.1992 25.5299 24.3654 26.1309 23.7461 26.978C23.126 27.8255 22.8166 29.0048 22.8166 30.5163C22.8166 32.5314 23.3855 33.9917 24.5231 34.896C25.6608 35.8008 27.4236 36.2528 29.8123 36.2528H30.7583C32.4483 36.2528 33.7602 35.9779 34.6957 35.4286C35.6303 34.8787 36.289 34.1519 36.6727 33.2471C37.0554 32.3427 37.247 31.3866 37.247 30.3788V23.68C37.247 22.3288 37.0444 21.1896 36.6388 20.262C36.2331 19.3343 35.5344 18.6304 34.5435 18.1496ZM33.3604 29.5202C33.3604 30.8253 33.1238 31.753 32.6508 32.3028C32.1778 32.8521 31.389 33.1271 30.2852 33.1271H29.7109C28.7643 33.1271 28.0318 32.9328 27.5139 32.5433C26.9956 32.1537 26.737 31.467 26.737 30.4819C26.737 29.4969 27.0015 28.7984 27.5309 28.3866C28.0599 27.9743 28.8543 27.7679 29.9135 27.7679C30.3412 27.7679 30.8372 27.78 31.4005 27.8023C31.9634 27.8256 32.617 27.883 33.3605 27.9743L33.3604 29.5202Z" fill="#424940"/>
<path d="M50.1561 17.9091H49.4126C48.5559 17.9091 47.745 18.1612 46.9796 18.6649C46.2132 19.1685 45.6389 19.7985 45.2557 20.5543V18.9054C45.2557 18.5158 45.1883 18.2526 45.0531 18.1152C44.9179 17.9777 44.6249 17.9092 44.1744 17.9092H42.3836C41.9551 17.9092 41.6681 17.9777 41.5218 18.1152C41.3747 18.2526 41.3018 18.5158 41.3018 18.9054V34.9135C41.3018 35.303 41.3746 35.5663 41.5218 35.7037C41.6681 35.8411 41.955 35.9096 42.3836 35.9096H44.2423C44.6924 35.9096 44.9858 35.8411 45.121 35.7037C45.2558 35.5663 45.3235 35.303 45.3235 34.9135V25.8785C45.3235 24.6196 45.6838 23.6062 46.4049 22.8383C47.1259 22.0714 48.061 21.6879 49.2101 21.6879H50.1562C50.494 21.6879 50.719 21.625 50.8322 21.4988C50.9445 21.3735 51.0009 21.1157 51.0009 20.7258V18.8709C51.0009 18.4819 50.9445 18.2242 50.8322 18.0979C50.719 17.9721 50.4938 17.9091 50.1561 17.9091Z" fill="#424940"/>
<path d="M66.9515 11.4508H65.0928C64.6646 11.4508 64.3773 11.5193 64.231 11.6567C64.0844 11.7942 64.0115 12.0579 64.0115 12.447V18.9737C62.9975 17.9431 61.5555 17.4278 59.6858 17.4278C57.4325 17.4278 55.7091 18.1323 54.515 19.5408C53.3209 20.9489 52.7242 22.9589 52.7242 25.5696V28.936C52.7242 31.2493 53.4112 33.0702 54.7854 34.3981C56.1597 35.7265 58.0408 36.3904 60.4293 36.3904C62.8848 36.3904 64.7659 35.7265 66.0727 34.3981C67.3796 33.0697 68.0332 31.1808 68.0332 28.73V12.447C68.0332 12.0579 67.9653 11.7942 67.8301 11.6567C67.695 11.5193 67.402 11.4508 66.9515 11.4508ZM64.0789 28.2492C64.0789 31.3868 62.8624 32.9551 60.4294 32.9551C57.9735 32.9551 56.7455 31.3867 56.7455 28.2492V25.604C56.7455 22.4664 57.9735 20.8977 60.4294 20.8977C62.8624 20.8977 64.0789 22.4777 64.0789 25.6381V28.2492Z" fill="#424940"/>
<path d="M79.0837 17.4279C76.6726 17.4279 74.7919 18.1268 73.4398 19.5237C72.0881 20.9206 71.4124 22.8788 71.4124 25.3977V28.7646C71.4124 31.1692 72.088 33.0414 73.4398 34.3809C74.7919 35.7205 76.6726 36.3905 79.0837 36.3905C80.0386 36.3905 80.9069 36.2754 81.6957 36.0545C81.7871 36.1629 81.8979 36.2586 82.0401 36.3226L84.5729 37.462C85.2677 37.7745 86.0348 37.2053 85.9536 36.4374L85.6578 33.638C85.6424 33.4919 85.5916 33.3648 85.5262 33.2492C86.3418 31.9665 86.7548 30.36 86.7548 28.4207V25.0543C86.7548 22.6496 86.0792 20.7775 84.7275 19.4375C83.3753 18.0979 81.4943 17.4279 79.0837 17.4279ZM75.4337 28.2492V25.5696C75.4337 22.4553 76.6506 20.8977 79.0837 20.8977C81.5167 20.8977 82.7337 22.4553 82.7337 25.5696V28.2492C82.7337 31.364 81.5167 32.9211 79.0837 32.9211C76.6506 32.9211 75.4337 31.364 75.4337 28.2492Z" fill="#424940"/>
<path d="M103.517 19.0941C102.593 17.9837 101.185 17.4279 99.2932 17.4279C98.2563 17.4279 97.3158 17.6231 96.471 18.0121C95.6263 18.4017 94.9447 18.9394 94.4263 19.6266V18.9053C94.4263 18.493 94.353 18.2241 94.2067 18.0978C94.0601 17.9721 93.7726 17.9091 93.345 17.9091H91.5541C91.1256 17.9091 90.8386 17.972 90.6924 18.0978C90.5453 18.2241 90.4723 18.493 90.4723 18.9053V34.9135C90.4723 35.3258 90.5452 35.5952 90.6924 35.7205C90.8386 35.8467 91.1255 35.9096 91.5541 35.9096H93.4128C93.8405 35.9096 94.1274 35.8467 94.2746 35.7205C94.4208 35.5952 94.4942 35.3258 94.4942 34.9135V24.8483C94.4942 23.6345 94.8036 22.6896 95.4232 22.014C96.043 21.3389 96.8937 21.0006 97.975 21.0006C99.0788 21.0006 99.8388 21.2816 100.256 21.8421C100.673 22.4035 100.881 23.211 100.881 24.264V34.9135C100.881 35.3258 100.954 35.5952 101.101 35.7205C101.248 35.8467 101.535 35.9096 101.963 35.9096H103.822C104.249 35.9096 104.537 35.8467 104.684 35.7205C104.83 35.5952 104.903 35.3258 104.903 34.9135V23.6458C104.903 21.7219 104.441 20.2053 103.517 19.0941Z" fill="#424940"/>
</svg>
