<svg width="86" height="85" viewBox="0 0 86 85" fill="none" xmlns="http://www.w3.org/2000/svg">
<path d="M43 42.5001C39.1042 42.5001 35.7691 41.1129 32.9948 38.3386C30.2205 35.5643 28.8333 32.2292 28.8333 28.3334C28.8333 24.4376 30.2205 21.1025 32.9948 18.3282C35.7691 15.5539 39.1042 14.1667 43 14.1667C46.8958 14.1667 50.2309 15.5539 53.0052 18.3282C55.7795 21.1025 57.1667 24.4376 57.1667 28.3334C57.1667 32.2292 55.7795 35.5643 53.0052 38.3386C50.2309 41.1129 46.8958 42.5001 43 42.5001ZM14.6667 70.8334V60.9167C14.6667 58.9098 15.1831 57.0652 16.2161 55.3829C17.2491 53.7006 18.6215 52.4167 20.3333 51.5313C23.993 49.7015 27.7118 48.3291 31.4896 47.4141C35.2674 46.4992 39.1042 46.0417 43 46.0417C46.8958 46.0417 50.7326 46.4992 54.5104 47.4141C58.2882 48.3291 62.0069 49.7015 65.6667 51.5313C67.3785 52.4167 68.7509 53.7006 69.7838 55.3829C70.8168 57.0652 71.3333 58.9098 71.3333 60.9167V70.8334H14.6667ZM21.75 63.7501H64.25V60.9167C64.25 60.2674 64.0877 59.6772 63.763 59.1459C63.4384 58.6147 63.0104 58.2015 62.4792 57.9063C59.2917 56.3126 56.0746 55.1173 52.8281 54.3204C49.5816 53.5235 46.3055 53.1251 43 53.1251C39.6944 53.1251 36.4184 53.5235 33.1719 54.3204C29.9253 55.1173 26.7083 56.3126 23.5208 57.9063C22.9896 58.2015 22.5616 58.6147 22.237 59.1459C21.9123 59.6772 21.75 60.2674 21.75 60.9167V63.7501ZM43 35.4167C44.9479 35.4167 46.6154 34.7232 48.0026 33.336C49.3897 31.9489 50.0833 30.2813 50.0833 28.3334C50.0833 26.3855 49.3897 24.718 48.0026 23.3308C46.6154 21.9437 44.9479 21.2501 43 21.2501C41.0521 21.2501 39.3845 21.9437 37.9974 23.3308C36.6102 24.718 35.9167 26.3855 35.9167 28.3334C35.9167 30.2813 36.6102 31.9489 37.9974 33.336C39.3845 34.7232 41.0521 35.4167 43 35.4167Z" fill="#C1C9BE"/>
</svg>
